<svg width="545" height="558" viewBox="0 0 545 558" fill="none" xmlns="http://www.w3.org/2000/svg">
<path d="M391.246 41.4279C430.56 55.1614 477.362 66.3979 484.85 94.4891C492.339 123.205 460.513 168.775 454.273 211.848C448.656 254.297 468.626 293 458.017 315.473C446.784 337.946 404.974 343.565 371.277 372.904C336.955 402.868 311.37 456.554 273.304 478.402C234.614 500.875 183.443 490.887 159.106 455.305C134.769 420.347 137.265 359.795 129.152 315.473C121.04 271.152 102.319 243.06 94.8307 210.599C87.3423 178.139 90.4625 141.308 104.191 106.35C117.296 71.3919 141.009 38.3067 172.835 19.5792C205.284 0.851754 245.222 -3.518 282.04 2.7245C318.858 9.59124 351.308 27.0702 391.246 41.4279Z" fill="url(#paint0_linear)"/>
<path d="M191.259 81.8463C191.259 81.8463 198.339 82.4048 198.948 92.2032C199.557 102.002 199.608 130.432 186.311 132.183C173.014 133.935 182.581 85.4763 182.581 85.4763L191.259 81.8463Z" fill="#1C2226"/>
<path d="M145.076 90.6294C145.076 90.6294 139.696 105.631 150.43 108.373C161.189 111.114 159.185 89.3601 159.185 89.3601L145.076 90.6294Z" fill="#1C2226"/>
<path d="M206.231 184.856L239.498 231.766L237.646 227.375L252.998 296.217L270.101 293.019L259.519 223.288C259.291 221.765 258.707 220.394 257.895 219.226L257.667 218.896L224.4 171.986L206.231 184.856Z" fill="#FCC9A7"/>
<path d="M265.736 317.337C274.491 314.722 279.439 305.482 276.825 296.75C274.212 287.992 264.975 283.043 256.246 285.657C247.491 288.272 242.543 297.512 245.157 306.244C247.77 314.976 256.982 319.951 265.736 317.337Z" fill="#FCC9A7"/>
<path d="M134.215 183.257L113.179 247.581L124.471 239.915L55.9574 238.061L54.8661 255.45L123.075 262.177C128.15 262.684 132.718 259.537 134.241 254.891L134.367 254.511L155.404 190.187L134.215 183.257Z" fill="#FCC9A7"/>
<path d="M137.945 512.263L127.643 540.668L112.57 527.113L122.187 504.343L137.945 512.263Z" fill="#FCC9A7"/>
<path d="M133.606 534.094C133.606 532.697 132.414 531.784 131.221 532.291C128.886 533.281 125.004 534.144 120.411 532.088C115.615 529.931 114.727 526.402 114.727 524.067C114.727 522.848 113.864 521.934 112.748 522.087L77.6534 527.138C75.5218 527.443 73.5172 528.687 72.0961 530.59C70.7512 532.367 71.3855 534.982 73.2633 535.54L125.664 551.482C127.719 552.116 129.952 550.619 130.561 548.233L133.53 536.505C133.581 536.302 133.606 536.099 133.606 535.921V534.094Z" fill="#1F252A"/>
<path d="M274.973 492.971L286.392 515.335L273.095 526.707L258.733 499.875L274.973 492.971Z" fill="#FCC9A7"/>
<path d="M288.777 510.41C287.711 509.522 286.24 509.826 285.859 511.07C285.098 513.507 283.271 517.01 278.703 519.193C273.958 521.452 270.684 519.828 268.908 518.33C267.969 517.543 266.701 517.619 266.117 518.558L247.238 548.588C246.096 550.416 245.74 552.726 246.273 555.036C246.755 557.219 249.141 558.412 250.815 557.346L296.897 527.697C298.699 526.529 299.029 523.864 297.608 521.858L290.579 512.009C290.452 511.857 290.325 511.705 290.173 511.578L288.777 510.41Z" fill="#1F252A"/>
<path d="M149.593 283.195L194.66 408.263L258.454 514.015L286.899 499.952L230.185 394.531L199.075 289.084L149.593 283.195Z" fill="#092330"/>
<path d="M219.223 285.048C219.223 285.048 227.749 301.167 214.503 326.932L173.37 405.446L142.031 524.448L110.895 513.583L140.686 393.236L172.887 299.339L149.567 283.22L219.223 285.048Z" fill="#0C2C40"/>
<path d="M180.424 146.094L215.518 153.303C219.654 154.141 223.309 156.527 225.77 159.954L248.1 191.075L218.259 210.596L229.018 295.811C229.018 295.811 216.863 333.024 142.716 303.35C142.716 303.35 149.111 232.731 144.822 186.734L147.005 156.451L180.424 146.094Z" fill="#DF945B"/>
<path d="M146.979 156.426L141.143 158.558C136.321 160.309 132.566 164.193 130.967 169.092L118.812 206.179L154.541 212.779L146.979 156.426Z" fill="#DF945B"/>
<path d="M33.1701 241.793C33.1701 250.931 40.5798 258.344 49.7149 258.344C58.8501 258.344 66.2344 250.931 66.2344 241.793C66.2344 232.655 58.8247 225.268 49.7149 225.268C40.5798 225.268 33.1701 232.655 33.1701 241.793Z" fill="#FCC9A7"/>
<path d="M170.502 156.832L174.486 159.04C182.226 158.405 189.508 156.756 188.874 149.013L187.021 126.32L158.982 128.63L160.834 151.323C161.468 159.066 162.763 157.466 170.502 156.832Z" fill="#FCC9A7"/>
<path d="M187.402 129.061C187.402 129.061 183.545 145.866 169.436 145.282C157.104 144.749 158.271 126.32 158.271 126.32L187.402 129.061Z" fill="#F4BE9A"/>
<path d="M171.847 139.316L174.232 139.063C186.159 137.768 194.786 127.056 193.518 115.1L192.046 101.494C190.752 89.5632 180.043 80.9325 168.091 82.2017L165.706 82.4556C153.78 83.7502 145.152 94.4624 146.421 106.418L147.893 120.024C149.187 131.955 159.895 140.586 171.847 139.316Z" fill="#FCC9A7"/>
<path d="M216.203 204.656L207.17 193.994" stroke="#CE804A" stroke-width="0.7693" stroke-miterlimit="10" stroke-linecap="round" stroke-linejoin="round"/>
<path d="M146.167 211.23L144.797 189.222" stroke="#CE804A" stroke-width="0.7693" stroke-miterlimit="10" stroke-linecap="round" stroke-linejoin="round"/>
<path d="M170.502 156.832L188.316 146.069C195.928 142.896 200.775 150.257 200.775 150.257L179.561 171.072L170.502 156.832Z" fill="#EDA472"/>
<path d="M170.502 156.832L161.875 170.184L153.247 154.471C153.247 154.471 156.647 149.115 161.291 150.359L170.502 156.832Z" fill="#EDA472"/>
<path d="M124.014 242.478H16.1939C14.3922 242.478 12.9459 241.031 12.9459 239.229C12.9459 237.427 14.3922 235.98 16.1939 235.98H124.014C125.816 235.98 127.262 237.427 127.262 239.229C127.262 241.006 125.816 242.478 124.014 242.478Z" fill="#D1D1D1"/>
<path d="M12.9459 238.391L0.0550841 175.743C-0.274797 174.195 0.917931 172.722 2.51659 172.722H68.1121C69.3048 172.722 70.3451 173.56 70.5735 174.753L83.2866 238.417H12.9459V238.391Z" fill="#D1D1D1"/>
<path d="M7.33789 177.495L19.3658 234.33H78.8459L66.818 177.495H7.33789Z" fill="#EFEFEF"/>
<path d="M190.625 111.851H183.342L181.921 103.855C181.921 103.855 174.308 99.7677 175.78 91.8732C175.78 91.8732 143.731 103.372 138.732 90.5785C132.134 73.698 156.063 69.5096 175.78 69.9919C195.497 70.4488 194.076 95.6301 194.076 95.6301L190.625 111.851Z" fill="#1C2226"/>
<path d="M186.362 110.251C186.819 114.516 190.65 117.588 194.913 117.131C199.176 116.674 202.247 112.841 201.79 108.576C201.333 104.311 197.502 101.24 193.239 101.697C188.976 102.154 185.905 105.987 186.362 110.251Z" fill="#FCC9A7"/>
<path d="M316.188 351.961H394.167V475.735H316.188V351.961Z" fill="#B2B2B2"/>
<path d="M393.862 351.961H471.841V475.735H393.862V351.961Z" fill="#D1D1D1"/>
<path d="M434.717 201.864L438.041 268.396L453.672 317.185H425.531L410.914 275.148L406.347 227.375L434.717 201.864Z" fill="#F7EBE7"/>
<path d="M435.503 434.41L429.844 460.784L448.851 463.043L454.256 437.075L435.503 434.41Z" fill="#FCC9A7"/>
<path d="M428.703 458.398C429.185 456.976 430.707 456.469 431.748 457.382C433.778 459.185 437.432 461.393 442.837 460.86C448.445 460.302 450.551 457.002 451.363 454.616C451.794 453.372 452.987 452.737 454.053 453.27L488.081 470.379C490.137 471.42 491.761 473.349 492.573 475.761C493.334 478.02 491.811 480.457 489.68 480.406L430.885 478.781C428.576 478.731 426.799 476.446 427.002 473.806L427.967 460.86C427.992 460.657 428.017 460.429 428.094 460.225L428.703 458.398Z" fill="#1F252A"/>
<path d="M435.833 306.879H479.961C479.961 306.879 506.834 305.381 508.432 327.44C510.031 349.499 469.024 412.604 462.604 446.315L425.708 443.269L452.276 351.606L386.199 351.987C381.301 352.012 376.429 351.301 371.811 349.702C358.945 345.234 339.305 338.838 350.013 303.401L435.833 306.879Z" fill="#092330"/>
<path d="M401.779 434.511L392.796 466.038L411.803 468.298L420.532 437.176L401.779 434.511Z" fill="#FCC9A7"/>
<path d="M391.654 463.652C392.137 462.231 393.659 461.723 394.699 462.637C396.729 464.439 400.384 466.648 405.788 466.115C411.396 465.556 413.503 462.256 414.315 459.87C414.746 458.626 415.939 457.992 417.005 458.525L451.033 475.634C453.088 476.674 454.712 478.604 455.525 481.015C456.286 483.274 454.763 485.711 452.632 485.661L392.822 484.036C390.512 483.985 388.736 481.701 388.939 479.061L390.944 466.115C390.969 465.911 390.995 465.683 391.071 465.48L391.654 463.652Z" fill="#1F252A"/>
<path d="M383.103 175.718C382.113 176.683 337.833 187.979 337.833 187.979L347.298 213.134L395.714 209.479L383.103 175.718Z" fill="#F7EBE7"/>
<path d="M401.373 181.785C401.373 181.785 430.225 192.319 434.717 201.864C433.169 215.343 428.423 228.314 420.608 239.407C411.016 253.013 399.165 276.392 401.348 306.879H317.939C317.939 306.879 322.43 221.105 347.12 188.182L401.373 181.785Z" fill="#F7EBE7"/>
<path d="M391.908 195.391C383.712 193.715 378.434 185.719 380.108 177.52L385.006 153.532L414.67 159.599L409.772 183.587C408.098 191.786 400.104 197.066 391.908 195.391Z" fill="#FCC9A7"/>
<path d="M382.976 161.909C382.976 161.909 386.097 181.353 401.221 182.521C414.467 183.536 413.198 164.371 413.198 164.371L382.976 161.909Z" fill="#F4BE9A"/>
<path d="M400.028 171.859L397.415 171.25C384.295 168.204 376.125 155.106 379.17 142.007L382.621 127.056C385.666 113.932 398.76 105.759 411.853 108.805L414.467 109.414C427.586 112.46 435.757 125.558 432.712 138.657L429.261 153.608C426.216 166.732 413.122 174.906 400.028 171.859Z" fill="#FCC9A7"/>
<path d="M387.391 148.227C388 149.267 388.584 150.841 388.787 153.227C389.015 156.248 390.538 159.117 393.075 160.792C400.358 165.615 405.915 153.405 416.675 155.563C416.675 155.563 420.887 156.197 421.724 160.893C422.562 165.564 428.424 157.39 429.718 151.806C431.012 146.221 431.671 179.449 405.179 176.632C405.179 176.632 391.807 176.2 382.798 162.569C381.809 161.071 381.225 159.32 381.174 157.517C381.098 154.852 381.479 150.816 384.016 147.922C384.905 146.856 386.681 147.008 387.391 148.227Z" fill="#1C2226"/>
<path d="M387.366 140.688C387.366 140.688 398.81 136.905 396.882 120.177C396.882 120.177 425.302 147.084 446.364 127.335C446.364 127.335 436.95 124.822 433.067 118.375C425.987 106.622 405.636 90.4266 389.345 109.16C389.345 109.16 369.527 106.089 375.211 136.626L387.366 140.688Z" fill="#1C2226"/>
<path d="M387.366 140.688C386.275 145.358 381.606 148.277 376.937 147.211C372.242 146.12 369.349 141.449 370.415 136.778C371.506 132.108 376.175 129.188 380.845 130.255C385.539 131.346 388.457 136.017 387.366 140.688Z" fill="#FCC9A7"/>
<path d="M401.83 194.452L389.574 194.68L398.151 212.449L407.412 195.416L401.83 194.452Z" fill="#0C2C40"/>
<path d="M379.068 176.505L394.852 194.934L384.575 206.737L365.67 180.744C365.67 180.744 370.517 172.951 379.068 176.505Z" fill="#FFF7F3"/>
<path d="M401.83 194.452L410.914 204.707L417.309 188.715C417.309 188.715 415.634 181.531 410.407 182.902L401.83 194.452Z" fill="#FFF7F3"/>
<path d="M398.48 206.712C398.48 206.712 410.331 237.63 407.387 281.494L395.714 292.156L382.088 279.032L396.78 204.707L398.48 206.712Z" fill="#0C2C40"/>
<path d="M376.327 280.124L401.703 288.475L403.378 303.376L369.73 293.323L376.327 280.124Z" fill="#FCC9A7"/>
<path d="M397.922 298.323C397.922 307.03 404.977 314.112 413.706 314.112C422.409 314.112 429.489 307.056 429.489 298.323C429.489 289.617 422.435 282.534 413.706 282.534C405.002 282.534 397.922 289.591 397.922 298.323Z" fill="#FCC9A7"/>
<path d="M401.373 306.879H445.476C445.476 306.879 472.348 305.381 473.947 327.44C475.546 349.499 431.519 416.666 425.099 450.351L388.203 447.305L417.791 351.58L351.713 351.961C346.816 351.987 341.944 351.276 337.325 349.677C324.46 345.209 304.82 338.812 315.528 303.376L401.373 306.879Z" fill="#0C2C40"/>
<path d="M534.417 228.873H458.163C455.651 228.873 453.494 230.624 452.962 233.086L438.599 300.456C437.889 303.756 440.426 306.879 443.801 306.879H521.323C523.861 306.879 526.043 305.076 526.525 302.589L539.619 235.219C540.278 231.919 537.766 228.873 534.417 228.873Z" fill="#B2B2B2"/>
<path d="M538.807 228.873H462.579C460.067 228.873 457.91 230.624 457.377 233.086L443.014 300.456C442.304 303.756 444.816 306.879 448.216 306.879H525.713C528.251 306.879 530.433 305.076 530.915 302.589L544.009 235.219C544.668 231.919 542.156 228.873 538.807 228.873Z" fill="#D1D1D1"/>
<path d="M440.68 301.116H388.584C386.985 301.116 385.716 302.411 385.716 303.985C385.716 305.584 387.011 306.853 388.584 306.853H441.695L440.68 301.116Z" fill="#B2B2B2"/>
<path d="M491.608 266.111C491.608 270.706 495.313 274.412 499.906 274.412C504.499 274.412 508.204 270.681 508.204 266.111C508.204 261.517 504.474 257.811 499.906 257.811C495.313 257.811 491.608 261.517 491.608 266.111Z" fill="white"/>
<path d="M356.027 211.941L328.165 256.948L394.852 280.758L385.716 300.507C385.716 300.507 328.698 294.11 301.14 272.864C298.603 270.909 297.334 267.736 297.765 264.563C299.059 254.409 304.591 229.761 328.165 194.731C332.961 187.598 342.502 185.44 349.937 189.755C357.677 194.223 360.392 204.123 356.027 211.941Z" fill="#F7EBE7"/>
<path d="M377.114 274.412L328.165 256.948L352.652 217.374" stroke="#EADDD8" stroke-width="0.7599" stroke-miterlimit="10" stroke-linecap="round" stroke-linejoin="round"/>
<path d="M410.255 259.512L422.308 227.68" stroke="#EADDD8" stroke-width="0.7599" stroke-miterlimit="10" stroke-linecap="round" stroke-linejoin="round"/>
<path d="M376.328 299.162C376.328 299.162 338.873 294.466 319.994 283.652" stroke="#EADDD8" stroke-width="0.7599" stroke-miterlimit="10" stroke-linecap="round" stroke-linejoin="round"/>
<defs>
<linearGradient id="paint0_linear" x1="90.8663" y1="490.373" x2="555.182" y2="335.525" gradientUnits="userSpaceOnUse">
<stop stop-color="#6CACE4"/>
<stop offset="0.0666667" stop-color="#6CACE4"/>
<stop offset="0.133333" stop-color="#6DADE4"/>
<stop offset="0.2" stop-color="#6FAEE5"/>
<stop offset="0.266667" stop-color="#72B0E5"/>
<stop offset="0.333333" stop-color="#75B3E6"/>
<stop offset="0.4" stop-color="#79B6E7"/>
<stop offset="0.466667" stop-color="#7DB9E8"/>
<stop offset="0.533333" stop-color="#82BDEA"/>
<stop offset="0.6" stop-color="#86C0EB"/>
<stop offset="0.666667" stop-color="#8AC3EC"/>
<stop offset="0.733333" stop-color="#8DC6ED"/>
<stop offset="0.8" stop-color="#90C8ED"/>
<stop offset="0.866667" stop-color="#92C9EE"/>
<stop offset="0.933333" stop-color="#93CAEE"/>
<stop offset="1" stop-color="#93CAEE"/>
</linearGradient>
</defs>
</svg>
